<svg width="100" height="100" viewBox="0 0 100 100" fill="none" xmlns="http://www.w3.org/2000/svg">
<g clip-path="url(#clip0_92_2)">
<path d="M29.8334 45.7166C33.6959 41.1593 38.8648 37.898 44.641 36.3737C50.4173 34.8493 56.5223 35.1354 62.1306 37.1934C67.739 39.2513 72.5802 42.9817 75.9996 47.8803C79.419 52.7789 81.2518 58.6093 81.25 64.5833C81.25 66.2409 81.9085 67.8306 83.0806 69.0027C84.2527 70.1748 85.8424 70.8333 87.5 70.8333C89.1576 70.8333 90.7473 70.1748 91.9194 69.0027C93.0915 67.8306 93.75 66.2409 93.75 64.5833C93.75 41.5708 75.0959 22.9167 52.0834 22.9167C46.2568 22.9103 40.4941 24.1293 35.1693 26.4945C29.8444 28.8598 25.0765 32.3184 21.175 36.6458L19.7292 28.4583C19.6012 27.6371 19.3108 26.8497 18.8748 26.1421C18.4389 25.4345 17.8662 24.821 17.1902 24.3374C16.5143 23.8538 15.7487 23.5099 14.9382 23.3258C14.1277 23.1417 13.2887 23.1211 12.4702 23.2652C11.6516 23.4093 10.8701 23.7152 10.1712 24.165C9.47233 24.6148 8.87018 25.1994 8.4 25.8848C7.92982 26.5701 7.60105 27.3423 7.43292 28.1562C7.2648 28.9702 7.2607 29.8095 7.42086 30.625L11.7625 55.25C12.05 56.8791 12.9709 58.3333 14.3334 59.2833C16.0125 60.4583 18.225 60.7208 20.1042 60.125L43.6209 55.975C44.4421 55.847 45.2295 55.5566 45.9371 55.1206C46.6447 54.6846 47.2582 54.1119 47.7418 53.436C48.2254 52.7601 48.5693 51.9944 48.7534 51.184C48.9375 50.3735 48.9581 49.5345 48.814 48.716C48.6699 47.8974 48.364 47.1159 47.9142 46.417C47.4644 45.7181 46.8797 45.116 46.1944 44.6458C45.5091 44.1756 44.7369 43.8468 43.9229 43.6787C43.109 43.5106 42.2697 43.5065 41.4542 43.6666L29.8375 45.7125L29.8334 45.7166Z" fill="#BD3944"/>
</g>
<defs>
<clipPath id="clip0_92_2">
<rect width="100" height="100" fill="white"/>
</clipPath>
</defs>
</svg>
