<svg width="50" height="50" viewBox="0 0 50 50" fill="none" xmlns="http://www.w3.org/2000/svg">
<path d="M17.6354 23.527C19.9958 21.1666 24.1125 21.1666 26.4729 23.527L27.9458 24.9999L30.8917 22.0541L29.4187 20.5811C27.4542 18.6145 24.8375 17.5291 22.0542 17.5291C19.2708 17.5291 16.6542 18.6145 14.6896 20.5811L10.2687 24.9999C8.31936 26.9555 7.22473 29.6042 7.22473 32.3655C7.22473 35.1268 8.31936 37.7755 10.2687 39.7311C11.2351 40.6989 12.3833 41.4662 13.6471 41.9889C14.911 42.5116 16.2657 42.7794 17.6333 42.777C19.0014 42.7798 20.3565 42.5122 21.6207 41.9895C22.885 41.4668 24.0334 40.6993 25 39.7311L26.4729 38.2582L23.5271 35.3124L22.0542 36.7853C20.8801 37.9541 19.291 38.6102 17.6344 38.6102C15.9778 38.6102 14.3886 37.9541 13.2146 36.7853C12.0448 35.6118 11.3879 34.0225 11.3879 32.3655C11.3879 30.7086 12.0448 29.1192 13.2146 27.9457L17.6354 23.527Z" fill="#BD3944"/>
<path d="M24.9999 10.2686L23.527 11.7416L26.4729 14.6874L27.9458 13.2145C29.1198 12.0457 30.709 11.3895 32.3656 11.3895C34.0222 11.3895 35.6113 12.0457 36.7854 13.2145C37.9551 14.3879 38.612 15.9773 38.612 17.6343C38.612 19.2912 37.9551 20.8806 36.7854 22.0541L32.3645 26.4728C30.0041 28.8332 25.8874 28.8332 23.527 26.4728L22.0541 24.9999L19.1083 27.9457L20.5812 29.4186C22.5458 31.3853 25.1624 32.4707 27.9458 32.4707C30.7291 32.4707 33.3458 31.3853 35.3104 29.4186L39.7312 24.9999C41.6806 23.0442 42.7752 20.3955 42.7752 17.6343C42.7752 14.873 41.6806 12.2243 39.7312 10.2686C37.7761 8.31823 35.1272 7.2229 32.3656 7.2229C29.6039 7.2229 26.9551 8.31823 24.9999 10.2686V10.2686Z" fill="#BD3944"/>
</svg>
