<svg width="151" height="114" viewBox="0 0 151 114" fill="none" xmlns="http://www.w3.org/2000/svg">
<path d="M146.558 3.87411C149.292 6.45873 150.888 10.0233 150.994 13.7841C151.101 17.5449 149.709 21.194 147.126 23.9291L66.7167 109.068C65.4135 110.446 63.8475 111.548 62.1111 112.31C60.3747 113.072 58.5033 113.478 56.6073 113.504C54.7113 113.531 52.8292 113.177 51.0722 112.464C49.3153 111.751 47.7191 110.693 46.3779 109.352L3.8084 66.7825C1.30191 64.0925 -0.0626504 60.5347 0.00221072 56.8586C0.0670719 53.1825 1.55629 49.675 4.15611 47.0752C6.75594 44.4754 10.2634 42.9861 13.9395 42.9213C17.6157 42.8564 21.1735 44.221 23.8634 46.7275L56.1217 78.9668L126.503 4.4417C129.088 1.70774 132.652 0.112124 136.413 0.00568622C140.174 -0.100751 143.823 1.2907 146.558 3.87411Z" fill="#007D52"/>
</svg>
