<svg width="84" height="68" viewBox="0 0 84 68" fill="none" xmlns="http://www.w3.org/2000/svg">
<path d="M71.1666 0.666626H12.8333C9.51805 0.666626 6.33862 1.98359 3.99442 4.32779C1.65021 6.672 0.333252 9.85142 0.333252 13.1666V54.8333C0.333252 58.1485 1.65021 61.3279 3.99442 63.6721C6.33862 66.0163 9.51805 67.3333 12.8333 67.3333H71.1666C74.4818 67.3333 77.6612 66.0163 80.0054 63.6721C82.3496 61.3279 83.6666 58.1485 83.6666 54.8333V13.1666C83.6666 9.85142 82.3496 6.672 80.0054 4.32779C77.6612 1.98359 74.4818 0.666626 71.1666 0.666626V0.666626ZM71.1666 8.99996L44.0833 27.625C43.4498 27.9907 42.7313 28.1832 41.9999 28.1832C41.2685 28.1832 40.55 27.9907 39.9166 27.625L12.8333 8.99996H71.1666Z" fill="#BD3944"/>
</svg>
