<svg width="36" height="36" viewBox="0 0 36 36" fill="none" xmlns="http://www.w3.org/2000/svg">
<g clip-path="url(#clip0_2_89)">
<path d="M18 20.1006C23.5898 20.1006 28.125 15.7323 28.125 10.348C28.125 4.9638 23.5898 0.595459 18 0.595459C12.4102 0.595459 7.875 4.9638 7.875 10.348C7.875 15.7323 12.4102 20.1006 18 20.1006ZM27 22.2679H23.1258C21.5648 22.9587 19.8281 23.3515 18 23.3515C16.1719 23.3515 14.4422 22.9587 12.8742 22.2679H9C4.02891 22.2679 0 26.1486 0 30.9368V32.0205C0 33.8152 1.51172 35.2713 3.375 35.2713H32.625C34.4883 35.2713 36 33.8152 36 32.0205V30.9368C36 26.1486 31.9711 22.2679 27 22.2679Z" fill="#BD3944"/>
</g>
<defs>
<clipPath id="clip0_2_89">
<rect width="36" height="34.6759" fill="white" transform="translate(0 0.595459)"/>
</clipPath>
</defs>
</svg>
