<svg width="88" height="100" viewBox="0 0 88 100" fill="none" xmlns="http://www.w3.org/2000/svg">
<g clip-path="url(#clip0_87_10)">
<path d="M28.125 28.125V37.5H59.375V28.125C59.375 19.4922 52.3828 12.5 43.75 12.5C35.1172 12.5 28.125 19.4922 28.125 28.125ZM15.625 37.5V28.125C15.625 12.5977 28.2227 0 43.75 0C59.2773 0 71.875 12.5977 71.875 28.125V37.5H75C81.8945 37.5 87.5 43.1055 87.5 50V87.5C87.5 94.3945 81.8945 100 75 100H12.5C5.60547 100 0 94.3945 0 87.5V50C0 43.1055 5.60547 37.5 12.5 37.5H15.625Z" fill="#BD3944"/>
</g>
<defs>
<clipPath id="clip0_87_10">
<rect width="87.5" height="100" fill="white"/>
</clipPath>
</defs>
</svg>
