<svg width="30" height="30" viewBox="0 0 30 30" fill="none" xmlns="http://www.w3.org/2000/svg">
<path d="M16.6425 14.875L21.0613 10.455C21.1807 10.3397 21.2759 10.2017 21.3414 10.0492C21.4069 9.89674 21.4414 9.73271 21.4428 9.56674C21.4443 9.40077 21.4126 9.23617 21.3498 9.08255C21.2869 8.92893 21.1941 8.78936 21.0768 8.67199C20.9594 8.55463 20.8198 8.46181 20.6662 8.39896C20.5126 8.33611 20.348 8.30448 20.182 8.30592C20.016 8.30737 19.852 8.34185 19.6995 8.40736C19.547 8.47287 19.4091 8.5681 19.2938 8.68749L14.8738 13.1062L10.455 8.68749C10.3397 8.5681 10.2018 8.47287 10.0493 8.40736C9.89677 8.34185 9.73274 8.30737 9.56677 8.30592C9.4008 8.30448 9.2362 8.33611 9.08258 8.39896C8.92896 8.46181 8.78939 8.55463 8.67202 8.67199C8.55466 8.78936 8.46184 8.92893 8.39899 9.08255C8.33614 9.23617 8.30451 9.40077 8.30596 9.56674C8.3074 9.73271 8.34188 9.89674 8.40739 10.0492C8.4729 10.2017 8.56813 10.3397 8.68752 10.455L13.1063 14.8737L8.68752 19.2937C8.56813 19.409 8.4729 19.547 8.40739 19.6995C8.34188 19.852 8.3074 20.016 8.30596 20.182C8.30451 20.348 8.33614 20.5126 8.39899 20.6662C8.46184 20.8198 8.55466 20.9594 8.67202 21.0767C8.78939 21.1941 8.92896 21.2869 9.08258 21.3498C9.2362 21.4126 9.4008 21.4442 9.56677 21.4428C9.73274 21.4414 9.89677 21.4069 10.0493 21.3414C10.2018 21.2759 10.3397 21.1806 10.455 21.0612L14.8738 16.6425L19.2938 21.0612C19.4091 21.1806 19.547 21.2759 19.6995 21.3414C19.852 21.4069 20.016 21.4414 20.182 21.4428C20.348 21.4442 20.5126 21.4126 20.6662 21.3498C20.8198 21.2869 20.9594 21.1941 21.0768 21.0767C21.1941 20.9594 21.2869 20.8198 21.3498 20.6662C21.4126 20.5126 21.4443 20.348 21.4428 20.182C21.4414 20.016 21.4069 19.852 21.3414 19.6995C21.2759 19.547 21.1807 19.409 21.0613 19.2937L16.6425 14.8737V14.875Z" fill="black"/>
</svg>
