<svg width="59" height="59" viewBox="0 0 59 59" fill="none" xmlns="http://www.w3.org/2000/svg">
<path d="M49.1667 35.6459C50.1447 35.6459 51.0826 36.0344 51.7741 36.726C52.4657 37.4175 52.8542 38.3554 52.8542 39.3334V49.1668C52.8542 50.7967 52.2067 52.36 51.0541 53.5125C49.9015 54.6651 48.3383 55.3126 46.7083 55.3126H12.2917C10.6617 55.3126 9.09848 54.6651 7.94591 53.5125C6.79334 52.36 6.14584 50.7967 6.14584 49.1668V39.3334C6.14584 38.3554 6.53434 37.4175 7.22588 36.726C7.91742 36.0344 8.85535 35.6459 9.83334 35.6459C10.8113 35.6459 11.7493 36.0344 12.4408 36.726C13.1323 37.4175 13.5208 38.3554 13.5208 39.3334V47.9376H45.4792V39.3334C45.4792 38.3554 45.8677 37.4175 46.5592 36.726C47.2508 36.0344 48.1887 35.6459 49.1667 35.6459ZM32.541 7.67009L42.5365 17.6681C42.8887 18.0083 43.1697 18.4152 43.3629 18.8651C43.5562 19.315 43.6579 19.7988 43.6622 20.2885C43.6664 20.7781 43.5731 21.2637 43.3877 21.7168C43.2023 22.17 42.9285 22.5817 42.5823 22.928C42.236 23.2742 41.8243 23.548 41.3711 23.7334C40.9179 23.9188 40.4324 24.0121 39.9428 24.0079C39.4531 24.0036 38.9693 23.9019 38.5194 23.7086C38.0695 23.5154 37.6626 23.2345 37.3224 22.8823L33.1875 18.7473V39.3334C33.1875 40.3114 32.799 41.2493 32.1075 41.9409C31.4159 42.6324 30.478 43.0209 29.5 43.0209C28.522 43.0209 27.5841 42.6324 26.8925 41.9409C26.201 41.2493 25.8125 40.3114 25.8125 39.3334V18.7473L21.6776 22.8823C21.3374 23.2345 20.9305 23.5154 20.4806 23.7086C20.0308 23.9019 19.5469 24.0036 19.0573 24.0079C18.5676 24.0121 18.0821 23.9188 17.6289 23.7334C17.1757 23.548 16.764 23.2742 16.4178 22.928C16.0715 22.5817 15.7977 22.17 15.6123 21.7168C15.4269 21.2637 15.3336 20.7781 15.3379 20.2885C15.3421 19.7988 15.4438 19.315 15.6371 18.8651C15.8303 18.4152 16.1113 18.0083 16.4635 17.6681L26.459 7.67255C27.2658 6.86641 28.3595 6.41357 29.5 6.41357C30.6405 6.41357 31.7343 6.86641 32.541 7.67255V7.67009Z" fill="#BD3944"/>
</svg>
