<svg width="59" height="59" viewBox="0 0 59 59" fill="none" xmlns="http://www.w3.org/2000/svg">
<path fill-rule="evenodd" clip-rule="evenodd" d="M24.4973 6.90546C24.0076 6.54736 23.4377 6.31464 22.8373 6.22765C22.2369 6.14065 21.6243 6.20203 21.0532 6.40642C18.3825 7.38479 15.902 8.81966 13.7224 10.647C13.2606 11.0391 12.9018 11.5382 12.6773 12.1009C12.4527 12.6635 12.3693 13.2725 12.4342 13.8748C12.6186 15.726 12.2917 17.5132 11.4017 19.0521C10.5143 20.5935 9.12779 21.771 7.43154 22.5355C6.87681 22.7813 6.39071 23.1591 6.01573 23.6361C5.64076 24.1131 5.38832 24.6746 5.2805 25.2717C4.79492 28.0697 4.79492 30.9304 5.2805 33.7283C5.50912 35.0485 6.41133 36.0048 7.43154 36.4669C9.12779 37.229 10.5143 38.409 11.4042 39.9479C12.2917 41.4893 12.6186 43.2741 12.4342 45.1252C12.3236 46.2364 12.6973 47.495 13.7224 48.353C15.902 50.1804 18.3824 51.6153 21.0532 52.5936C21.624 52.7978 22.2361 52.859 22.8361 52.772C23.436 52.6851 24.0055 52.4524 24.4948 52.0946C26.0067 51.008 27.7202 50.3959 29.5 50.3959C31.2798 50.3959 32.9908 51.008 34.5027 52.0946C35.4123 52.7485 36.6906 53.0533 37.9468 52.5936C40.6175 51.6152 43.098 50.1804 45.2776 48.353C46.3027 47.495 46.6788 46.2388 46.5657 45.1252C46.3814 43.2741 46.7059 41.4868 47.5982 39.9479C48.4857 38.4066 49.8722 37.2315 51.5685 36.4669C52.5862 36.0048 53.4909 35.0485 53.7195 33.7283C54.2049 30.9304 54.2049 28.0697 53.7195 25.2717C53.6117 24.6746 53.3592 24.1131 52.9843 23.6361C52.6093 23.1591 52.1232 22.7813 51.5685 22.5355C49.8722 21.771 48.4857 20.5935 47.5958 19.0521C46.7059 17.5132 46.3814 15.726 46.5657 13.8748C46.6305 13.2726 46.547 12.6636 46.3224 12.101C46.0979 11.5384 45.7392 11.0393 45.2776 10.647C43.098 8.81966 40.6175 7.38479 37.9468 6.40642C37.376 6.20246 36.7639 6.1413 36.164 6.22829C35.5641 6.31528 34.9946 6.54776 34.5052 6.90546C32.9908 7.98958 31.2774 8.60417 29.5 8.60417C27.7226 8.60417 26.0092 7.99204 24.4973 6.90546ZM22.125 29.5C22.125 27.544 22.902 25.6682 24.2851 24.2851C25.6682 22.902 27.544 22.125 29.5 22.125C31.456 22.125 33.3318 22.902 34.7149 24.2851C36.098 25.6682 36.875 27.544 36.875 29.5C36.875 31.456 36.098 33.3318 34.7149 34.7149C33.3318 36.098 31.456 36.875 29.5 36.875C27.544 36.875 25.6682 36.098 24.2851 34.7149C22.902 33.3318 22.125 31.456 22.125 29.5Z" fill="#BD3944"/>
</svg>
