<svg width="82" height="82" viewBox="0 0 82 82" fill="none" xmlns="http://www.w3.org/2000/svg">
<path d="M41 0.375C32.9652 0.375 25.1107 2.75761 18.43 7.22155C11.7492 11.6855 6.54222 18.0302 3.46741 25.4535C0.392602 32.8767 -0.411908 41.0451 1.15562 48.9255C2.72314 56.806 6.5923 64.0447 12.2738 69.7262C17.9553 75.4077 25.194 79.2769 33.0745 80.8444C40.955 82.4119 49.1233 81.6074 56.5465 78.5326C63.9698 75.4578 70.3145 70.2508 74.7785 63.57C79.2424 56.8893 81.625 49.0349 81.625 41C81.6044 30.2319 77.3176 19.9108 69.7034 12.2966C62.0892 4.6824 51.7681 0.395648 41 0.375V0.375ZM26.9375 28.5C27.8646 28.5 28.7709 28.7749 29.5418 29.29C30.3126 29.8051 30.9134 30.5371 31.2682 31.3937C31.623 32.2502 31.7158 33.1927 31.5349 34.102C31.3541 35.0113 30.9076 35.8465 30.2521 36.5021C29.5965 37.1576 28.7613 37.6041 27.852 37.7849C26.9427 37.9658 26.0002 37.873 25.1437 37.5182C24.2872 37.1634 23.5551 36.5626 23.04 35.7917C22.5249 35.0209 22.25 34.1146 22.25 33.1875C22.25 31.9443 22.7439 30.752 23.623 29.8729C24.502 28.9939 25.6943 28.5 26.9375 28.5ZM56.625 56.625H25.375C24.5462 56.625 23.7514 56.2958 23.1653 55.7097C22.5793 55.1237 22.25 54.3288 22.25 53.5C22.25 52.6712 22.5793 51.8763 23.1653 51.2903C23.7514 50.7042 24.5462 50.375 25.375 50.375H56.625C57.4538 50.375 58.2487 50.7042 58.8347 51.2903C59.4208 51.8763 59.75 52.6712 59.75 53.5C59.75 54.3288 59.4208 55.1237 58.8347 55.7097C58.2487 56.2958 57.4538 56.625 56.625 56.625ZM55.0625 37.875C54.1354 37.875 53.2291 37.6001 52.4583 37.085C51.6874 36.5699 51.0866 35.8379 50.7318 34.9813C50.377 34.1248 50.2842 33.1823 50.4651 32.273C50.646 31.3637 51.0924 30.5285 51.748 29.8729C52.4035 29.2174 53.2387 28.7709 54.148 28.5901C55.0573 28.4092 55.9998 28.502 56.8563 28.8568C57.7129 29.2116 58.445 29.8124 58.96 30.5833C59.4751 31.3541 59.75 32.2604 59.75 33.1875C59.75 34.4307 59.2562 35.623 58.3771 36.5021C57.498 37.3811 56.3057 37.875 55.0625 37.875Z" fill="#D18C25"/>
</svg>
