<svg width="82" height="82" viewBox="0 0 82 82" fill="none" xmlns="http://www.w3.org/2000/svg">
<path d="M41 0.375C32.9652 0.375 25.1107 2.75761 18.43 7.22155C11.7492 11.6855 6.54222 18.0302 3.46741 25.4535C0.392602 32.8767 -0.411908 41.0451 1.15562 48.9255C2.72314 56.806 6.5923 64.0447 12.2738 69.7262C17.9553 75.4077 25.194 79.2769 33.0745 80.8444C40.955 82.4119 49.1233 81.6074 56.5465 78.5326C63.9698 75.4578 70.3145 70.2508 74.7785 63.57C79.2424 56.8893 81.625 49.0349 81.625 41C81.6044 30.2319 77.3176 19.9108 69.7034 12.2966C62.0892 4.6824 51.7681 0.395648 41 0.375V0.375ZM55.0625 28.5C55.9896 28.5 56.8959 28.7749 57.6668 29.29C58.4376 29.8051 59.0384 30.5371 59.3932 31.3937C59.748 32.2502 59.8408 33.1927 59.6599 34.102C59.4791 35.0113 59.0326 35.8465 58.3771 36.5021C57.7215 37.1576 56.8863 37.6041 55.977 37.7849C55.0677 37.9658 54.1252 37.873 53.2687 37.5182C52.4122 37.1634 51.6801 36.5626 51.165 35.7917C50.6499 35.0209 50.375 34.1146 50.375 33.1875C50.375 31.9443 50.8689 30.752 51.748 29.8729C52.627 28.9939 53.8193 28.5 55.0625 28.5ZM26.9375 28.5C27.8646 28.5 28.7709 28.7749 29.5418 29.29C30.3126 29.8051 30.9134 30.5371 31.2682 31.3937C31.623 32.2502 31.7158 33.1927 31.5349 34.102C31.3541 35.0113 30.9076 35.8465 30.2521 36.5021C29.5965 37.1576 28.7613 37.6041 27.852 37.7849C26.9427 37.9658 26.0002 37.873 25.1437 37.5182C24.2872 37.1634 23.5551 36.5626 23.04 35.7917C22.5249 35.0209 22.25 34.1146 22.25 33.1875C22.25 31.9443 22.7439 30.752 23.623 29.8729C24.502 28.9939 25.6943 28.5 26.9375 28.5ZM58.8125 62.4453C58.3416 62.7307 57.8006 62.8794 57.25 62.875C56.7009 62.8854 56.1594 62.7454 55.6843 62.4699C55.2092 62.1945 54.8185 61.7942 54.5547 61.3125C53.1785 58.9363 51.2017 56.9637 48.8227 55.5923C46.4437 54.221 43.746 53.4991 41 53.4991C38.2541 53.4991 35.5563 54.221 33.1773 55.5923C30.7983 56.9637 28.8216 58.9363 27.4453 61.3125C27.259 61.7011 26.9942 62.0469 26.6678 62.3282C26.3414 62.6095 25.9603 62.8203 25.5485 62.9473C25.1367 63.0743 24.7031 63.1147 24.2749 63.0661C23.8467 63.0174 23.4332 62.8807 23.0604 62.6646C22.6876 62.4485 22.3635 62.1576 22.1085 61.8102C21.8535 61.4628 21.6731 61.0664 21.5786 60.6459C21.4842 60.2255 21.4777 59.79 21.5597 59.367C21.6416 58.9439 21.8101 58.5423 22.0547 58.1875C23.9745 54.8616 26.736 52.0997 30.0616 50.1795C33.3873 48.2592 37.1598 47.2483 41 47.2483C44.8402 47.2483 48.6128 48.2592 51.9384 50.1795C55.264 52.0997 58.0255 54.8616 59.9453 58.1875C60.3572 58.9029 60.4692 59.7523 60.2569 60.55C60.0447 61.3478 59.5254 62.0291 58.8125 62.4453Z" fill="#BD3944"/>
</svg>
