<svg width="82" height="82" viewBox="0 0 82 82" fill="none" xmlns="http://www.w3.org/2000/svg">
<path d="M41 0.375C32.9652 0.375 25.1107 2.75761 18.43 7.22155C11.7492 11.6855 6.54222 18.0302 3.46741 25.4535C0.392602 32.8767 -0.411908 41.0451 1.15562 48.9255C2.72314 56.806 6.5923 64.0447 12.2738 69.7262C17.9553 75.4077 25.194 79.2769 33.0745 80.8444C40.955 82.4119 49.1233 81.6074 56.5465 78.5326C63.9698 75.4578 70.3145 70.2508 74.7785 63.57C79.2424 56.8893 81.625 49.0349 81.625 41C81.6044 30.2319 77.3176 19.9108 69.7034 12.2966C62.0892 4.6824 51.7681 0.395648 41 0.375V0.375ZM55.0625 28.5C55.9896 28.5 56.8959 28.7749 57.6668 29.29C58.4376 29.8051 59.0384 30.5371 59.3932 31.3937C59.748 32.2502 59.8408 33.1927 59.6599 34.102C59.4791 35.0113 59.0326 35.8465 58.3771 36.5021C57.7215 37.1576 56.8863 37.6041 55.977 37.7849C55.0677 37.9658 54.1252 37.873 53.2687 37.5182C52.4122 37.1634 51.6801 36.5626 51.165 35.7917C50.6499 35.0209 50.375 34.1146 50.375 33.1875C50.375 31.9443 50.8689 30.752 51.748 29.8729C52.627 28.9939 53.8193 28.5 55.0625 28.5ZM26.9375 28.5C27.8646 28.5 28.7709 28.7749 29.5418 29.29C30.3126 29.8051 30.9134 30.5371 31.2682 31.3937C31.623 32.2502 31.7158 33.1927 31.5349 34.102C31.3541 35.0113 30.9076 35.8465 30.2521 36.5021C29.5965 37.1576 28.7613 37.6041 27.852 37.7849C26.9427 37.9658 26.0002 37.873 25.1437 37.5182C24.2872 37.1634 23.5551 36.5626 23.04 35.7917C22.5249 35.0209 22.25 34.1146 22.25 33.1875C22.25 31.9443 22.7439 30.752 23.623 29.8729C24.502 28.9939 25.6943 28.5 26.9375 28.5ZM59.9453 51.9375C58.0255 55.2634 55.264 58.0253 51.9384 59.9455C48.6128 61.8658 44.8402 62.8767 41 62.8767C37.1598 62.8767 33.3873 61.8658 30.0616 59.9455C26.736 58.0253 23.9745 55.2634 22.0547 51.9375C21.8101 51.5827 21.6416 51.1811 21.5597 50.758C21.4777 50.335 21.4842 49.8995 21.5786 49.4791C21.6731 49.0586 21.8535 48.6622 22.1085 48.3148C22.3635 47.9674 22.6876 47.6765 23.0604 47.4604C23.4332 47.2443 23.8467 47.1076 24.2749 47.0589C24.7031 47.0103 25.1367 47.0507 25.5485 47.1777C25.9603 47.3047 26.3414 47.5155 26.6678 47.7968C26.9942 48.0781 27.259 48.4239 27.4453 48.8125C28.8216 51.1887 30.7983 53.1613 33.1773 54.5327C35.5563 55.904 38.2541 56.6259 41 56.6259C43.746 56.6259 46.4437 55.904 48.8227 54.5327C51.2017 53.1613 53.1785 51.1887 54.5547 48.8125C55.0011 48.1649 55.6753 47.7094 56.4428 47.537C57.2102 47.3646 58.0145 47.488 58.695 47.8825C59.3755 48.277 59.8822 48.9136 60.1139 49.6652C60.3457 50.4169 60.2855 51.2283 59.9453 51.9375Z" fill="#007D52"/>
</svg>
