<svg width="25" height="25" viewBox="0 0 25 25" fill="none" xmlns="http://www.w3.org/2000/svg">
<g clip-path="url(#clip0_93_12)">
<path d="M17.7933 21.3885V19.3885C17.7933 18.3276 17.3719 17.3102 16.6218 16.5601C15.8716 15.8099 14.8542 15.3885 13.7933 15.3885H5.79333C4.73247 15.3885 3.71505 15.8099 2.96491 16.5601C2.21476 17.3102 1.79333 18.3276 1.79333 19.3885V21.3885" stroke="#BD3944" stroke-width="2" stroke-linecap="round" stroke-linejoin="round"/>
<path d="M9.79333 11.3885C12.0025 11.3885 13.7933 9.59763 13.7933 7.38849C13.7933 5.17935 12.0025 3.38849 9.79333 3.38849C7.5842 3.38849 5.79333 5.17935 5.79333 7.38849C5.79333 9.59763 7.5842 11.3885 9.79333 11.3885Z" stroke="#BD3944" stroke-width="2" stroke-linecap="round" stroke-linejoin="round"/>
<path d="M23.7933 21.3885V19.3885C23.7927 18.5022 23.4977 17.6413 22.9547 16.9408C22.4117 16.2404 21.6515 15.7401 20.7933 15.5185" stroke="#BD3944" stroke-width="2" stroke-linecap="round" stroke-linejoin="round"/>
<path d="M16.7933 3.51849C17.6537 3.73879 18.4164 4.23919 18.961 4.9408C19.5056 5.64241 19.8012 6.50532 19.8012 7.39349C19.8012 8.28166 19.5056 9.14457 18.961 9.84618C18.4164 10.5478 17.6537 11.0482 16.7933 11.2685" stroke="#BD3944" stroke-width="2" stroke-linecap="round" stroke-linejoin="round"/>
</g>
<defs>
<clipPath id="clip0_93_12">
<rect width="24" height="24" fill="white" transform="translate(0.793335 0.388489)"/>
</clipPath>
</defs>
</svg>
